<svg xmlns="http://www.w3.org/2000/svg" width="14.931" height="14.931" viewBox="0 0 14.931 14.931">
  <path id="Path_38901" data-name="Path 38901" d="M126.1,122.209a9.159,9.159,0,0,1-4.056-.927.831.831,0,0,0-1.112.385l-.6,1.236a11.681,11.681,0,0,1-4.308-4.308l1.238-.6a.831.831,0,0,0,.385-1.112,9.127,9.127,0,0,1-.929-4.056.83.83,0,0,0-.83-.829h-3.063a.83.83,0,0,0-.829.829,14.117,14.117,0,0,0,14.1,14.1.83.83,0,0,0,.829-.829v-3.063A.83.83,0,0,0,126.1,122.209Z" transform="translate(-112 -112)" fill="#c6c6c6"/>
</svg>
