<svg xmlns="http://www.w3.org/2000/svg" width="14" height="14" viewBox="0 0 14 14">
  <path id="Path_38901" data-name="Path 38901" d="M125.222,121.573a8.587,8.587,0,0,1-3.8-.87.779.779,0,0,0-1.042.361l-.56,1.159a10.953,10.953,0,0,1-4.04-4.04l1.16-.56a.779.779,0,0,0,.361-1.042,8.558,8.558,0,0,1-.871-3.8.778.778,0,0,0-.778-.778h-2.872a.778.778,0,0,0-.778.778A13.237,13.237,0,0,0,125.222,126a.778.778,0,0,0,.778-.778v-2.872A.778.778,0,0,0,125.222,121.573Z" transform="translate(-112 -112)" fill="#fffcfa"/>
</svg>
