<svg id="gmail" xmlns="http://www.w3.org/2000/svg" width="40" height="30.27" viewBox="0 0 40 30.27">
    <rect id="Rectangle_5490" data-name="Rectangle 5490" width="31.072" height="30.27" transform="translate(4.464)" fill="#eceff1"/>
    <path id="Path_41622" data-name="Path 41622" d="M256,159.326l13.848,10.935V148.672Z" transform="translate(-234.464 -140.143)" fill="#cfd8dc"/>
    <path id="Path_41623" data-name="Path 41623" d="M36.25,64H35L20,75.832,5,64H3.75A3.749,3.749,0,0,0,0,67.746V90.221a3.749,3.749,0,0,0,3.75,3.746H5V70.608L20,82.132,35,70.605V93.967h1.25A3.749,3.749,0,0,0,40,90.221V67.746A3.749,3.749,0,0,0,36.25,64Z" transform="translate(0 -63.848)" fill="#C6C6C6"/>
</svg>
