<svg xmlns="http://www.w3.org/2000/svg" xmlns:xlink="http://www.w3.org/1999/xlink" width="40" height="40" viewBox="0 0 40 40">
  <defs>
    <clipPath id="clip-path">
      <rect width="37.115" height="37.11" fill="none"/>
    </clipPath>
  </defs>
  <g id="whatsapp" transform="translate(0 0.001)">
    <path id="Path_41617" data-name="Path 41617" d="M.855,40a.852.852,0,0,1-.825-1.076l2.612-9.5A19.9,19.9,0,0,1,34.171,5.815,19.667,19.667,0,0,1,40,19.843,19.9,19.9,0,0,1,20.08,39.671h-.009a20.03,20.03,0,0,1-9.217-2.253L1.072,39.972A.863.863,0,0,1,.855,40Zm0,0" transform="translate(0 0)" fill="#e5e5e5"/>
    <path id="Path_41618" data-name="Path 41618" d="M10.894,49.27l2.711-9.854A19.086,19.086,0,0,1,43.678,16.472,18.857,18.857,0,0,1,49.27,29.925,19.09,19.09,0,0,1,30.163,48.941h-.008a19.16,19.16,0,0,1-9.13-2.315Zm10.6-6.087.58.342a15.915,15.915,0,0,0,8.083,2.2h.006A15.866,15.866,0,0,0,46.043,29.924,15.846,15.846,0,0,0,30.168,14.107,15.8,15.8,0,0,0,16.709,38.322l.378.6-1.6,5.832Zm0,0" transform="translate(-10.082 -10.083)" fill="#fff"/>
    <g id="Repeat_Grid_1" data-name="Repeat Grid 1" transform="translate(1.442 1.445)" clip-path="url(#clip-path)">
      <g transform="translate(-1.442 -1.445)">
        <path id="Path_41619" data-name="Path 41619" d="M19.344,56.493l2.622-9.529A18.458,18.458,0,0,1,51.051,24.776a18.231,18.231,0,0,1,5.408,13.009A18.461,18.461,0,0,1,37.98,56.174h-.008a18.546,18.546,0,0,1-8.831-2.238Zm0,0" transform="translate(-17.901 -17.938)" fill="#64b161"/>
      </g>
    </g>
    <g id="Group_37041" data-name="Group 37041" transform="translate(0.813 0.812)">
      <path id="Path_41620" data-name="Path 41620" d="M10.894,49.27l2.711-9.854A19.086,19.086,0,0,1,43.678,16.472,18.857,18.857,0,0,1,49.27,29.925,19.09,19.09,0,0,1,30.163,48.941h-.008a19.16,19.16,0,0,1-9.13-2.315Zm10.6-6.087.58.342a15.915,15.915,0,0,0,8.083,2.2h.006A15.866,15.866,0,0,0,46.043,29.924,15.846,15.846,0,0,0,30.168,14.107,15.8,15.8,0,0,0,16.709,38.322l.378.6-1.6,5.832Zm0,0" transform="translate(-10.894 -10.895)" fill="#fff"/>
      <path id="Path_41621" data-name="Path 41621" d="M137.629,142.406c-.376-.754-.771-.769-1.129-.782-.292-.011-.627-.011-.961-.011a1.939,1.939,0,0,0-1.337.567,4.884,4.884,0,0,0-1.756,3.775c0,2.228,1.8,4.38,2.049,4.682s3.47,5.019,8.569,6.833c4.237,1.508,5.1,1.208,6.019,1.133s2.968-1.1,3.386-2.152a3.438,3.438,0,0,0,.293-2.152c-.126-.188-.46-.3-.961-.528s-2.968-1.322-3.428-1.473-.794-.226-1.129.227-1.3,1.472-1.588,1.774-.585.34-1.087.114a14.1,14.1,0,0,1-4.034-2.247,13.95,13.95,0,0,1-2.791-3.135c-.292-.453,0-.676.22-.924a13.806,13.806,0,0,0,1.254-1.548.764.764,0,0,0-.042-.793C139.05,145.54,138.075,143.3,137.629,142.406Zm0,0" transform="translate(-123.382 -130.954)" fill="#fff" fill-rule="evenodd"/>
    </g>
  </g>
</svg>
