<svg width="36" height="36" viewBox="0 0 36 36" fill="none" xmlns="http://www.w3.org/2000/svg">
    <circle cx="18" cy="18" r="18" fill="url(#paint0_linear_65_754)"/>
    <path d="M12.9 26.6C14.4 27.5 16.2 28 18 28C23.5 28 28 23.5 28 18C28 12.5 23.5 8 18 8C12.5 8 8 12.5 8 18C8 19.8 8.5 21.5 9.3 23L8.44044 26.306C8.24572 27.0549 8.93892 27.7317 9.68299 27.5191L12.9 26.6Z" stroke="white" stroke-width="1.5" stroke-miterlimit="10" stroke-linecap="round" stroke-linejoin="round"/>
    <path d="M22.5 20.8485C22.5 21.0105 22.4639 21.177 22.3873 21.339C22.3107 21.501 22.2116 21.654 22.0809 21.798C21.86 22.041 21.6167 22.2165 21.3418 22.329C21.0714 22.4415 20.7784 22.5 20.4629 22.5C20.0033 22.5 19.512 22.392 18.9937 22.1715C18.4755 21.951 17.9572 21.654 17.4434 21.2805C16.9251 20.9025 16.4339 20.484 15.9652 20.0205C15.501 19.5525 15.0819 19.062 14.7078 18.549C14.3383 18.036 14.0408 17.523 13.8245 17.0145C13.6082 16.5015 13.5 16.011 13.5 15.543C13.5 15.237 13.5541 14.9445 13.6622 14.6745C13.7704 14.4 13.9417 14.148 14.1805 13.923C14.469 13.6395 14.7844 13.5 15.1179 13.5C15.2441 13.5 15.3703 13.527 15.483 13.581C15.6002 13.635 15.7038 13.716 15.7849 13.833L16.8305 15.3045C16.9116 15.417 16.9702 15.5205 17.0108 15.6195C17.0513 15.714 17.0739 15.8085 17.0739 15.894C17.0739 16.002 17.0423 16.11 16.9792 16.2135C16.9206 16.317 16.835 16.425 16.7268 16.533L16.3843 16.8885C16.3348 16.938 16.3122 16.9965 16.3122 17.0685C16.3122 17.1045 16.3167 17.136 16.3257 17.172C16.3393 17.208 16.3528 17.235 16.3618 17.262C16.4429 17.4105 16.5826 17.604 16.7809 17.838C16.9837 18.072 17.2 18.3105 17.4344 18.549C17.6778 18.7875 17.9121 19.008 18.151 19.2105C18.3853 19.4085 18.5791 19.5435 18.7323 19.6245C18.7549 19.6335 18.7819 19.647 18.8135 19.6605C18.8495 19.674 18.8856 19.6785 18.9261 19.6785C19.0028 19.6785 19.0613 19.6515 19.1109 19.602L19.4534 19.2645C19.5661 19.152 19.6743 19.0665 19.7779 19.0125C19.8816 18.9495 19.9852 18.918 20.0979 18.918C20.1835 18.918 20.2737 18.936 20.3728 18.9765C20.472 19.017 20.5756 19.0755 20.6883 19.152L22.18 20.2095C22.2972 20.2905 22.3783 20.385 22.4279 20.4975C22.473 20.61 22.5 20.7225 22.5 20.8485Z" stroke="white" stroke-width="1.5" stroke-miterlimit="10"/>
    <defs>
        <linearGradient id="paint0_linear_65_754" x1="-12.6" y1="-3.71039e-07" x2="53.4" y2="36" gradientUnits="userSpaceOnUse">
            <stop stop-color="#4EBDEF"/>
            <stop offset="1" stop-color="#4666E5"/>
        </linearGradient>
    </defs>
</svg>
