<svg xmlns="http://www.w3.org/2000/svg" width="14" height="14" viewBox="0 0 14 14">
  <path id="Path_38996" data-name="Path 38996" d="M7,0H7A7,7,0,0,0,1.333,11.1L.46,13.7l2.691-.86A7,7,0,1,0,7,0Zm4.073,9.885a1.975,1.975,0,0,1-1.374.988c-.366.078-.843.14-2.452-.527A8.769,8.769,0,0,1,3.764,7.268a4,4,0,0,1-.831-2.111,2.235,2.235,0,0,1,.716-1.7A1.017,1.017,0,0,1,4.365,3.2c.087,0,.164,0,.234.008.206.009.309.021.444.346.169.407.58,1.411.629,1.515a.417.417,0,0,1,.03.379,1.21,1.21,0,0,1-.227.321c-.1.119-.2.21-.3.338-.095.111-.2.23-.082.436A6.213,6.213,0,0,0,6.225,7.955,5.146,5.146,0,0,0,7.866,8.967a.443.443,0,0,0,.493-.078,8.469,8.469,0,0,0,.547-.725.391.391,0,0,1,.5-.152c.189.066,1.189.56,1.395.662s.341.152.391.239A1.743,1.743,0,0,1,11.075,9.885Z" transform="translate(0)" fill="#fffcfa"/>
</svg>
