<svg xmlns="http://www.w3.org/2000/svg" width="15.806" height="15.806" viewBox="0 0 15.806 15.806">
  <path id="Path_38996" data-name="Path 38996" d="M7.905,0h0A7.9,7.9,0,0,0,1.5,12.535L.52,15.471,3.557,14.5A7.9,7.9,0,1,0,7.905,0Zm4.6,11.16a2.23,2.23,0,0,1-1.551,1.115c-.413.088-.952.158-2.768-.595A9.9,9.9,0,0,1,4.25,8.205a4.514,4.514,0,0,1-.939-2.384A2.523,2.523,0,0,1,4.12,3.9a1.148,1.148,0,0,1,.808-.284c.1,0,.186,0,.265.009.232.01.349.024.5.39.191.459.655,1.593.71,1.71a.47.47,0,0,1,.034.428,1.366,1.366,0,0,1-.256.363c-.117.134-.227.237-.344.381-.107.125-.227.26-.093.492A7.015,7.015,0,0,0,7.028,8.981a5.81,5.81,0,0,0,1.853,1.143.5.5,0,0,0,.557-.088,9.562,9.562,0,0,0,.617-.818.441.441,0,0,1,.567-.172c.213.074,1.343.632,1.575.748s.385.172.442.27A1.968,1.968,0,0,1,12.5,11.16Z" fill="#c6c6c6"/>
</svg>
