<svg width="20" height="16" viewBox="0 0 20 16" fill="none" xmlns="http://www.w3.org/2000/svg">
<path d="M0.909091 1.12889L2.07273 0L17.2727 14.8622L16.1182 16L13.3182 13.2622C12.2727 13.6 11.1636 13.7778 10 13.7778C5.45455 13.7778 1.57273 11.0133 0 7.11111C0.627273 5.54667 1.62727 4.16889 2.9 3.07556L0.909091 1.12889ZM10 4.44444C10.7233 4.44444 11.417 4.7254 11.9285 5.22549C12.4399 5.72559 12.7273 6.40387 12.7273 7.11111C12.7273 7.42222 12.6727 7.72444 12.5727 8L9.09091 4.59556C9.37273 4.49778 9.68182 4.44444 10 4.44444ZM10 0.444444C14.5455 0.444444 18.4273 3.20889 20 7.11111C19.2545 8.96 17.9909 10.56 16.3636 11.7244L15.0727 10.4533C16.3091 9.61778 17.3273 8.48 18.0182 7.11111C16.5182 4.12444 13.4182 2.22222 10 2.22222C9.00909 2.22222 8.03636 2.38222 7.12727 2.66667L5.72727 1.30667C7.03636 0.755555 8.48182 0.444444 10 0.444444ZM1.98182 7.11111C3.48182 10.0978 6.58182 12 10 12C10.6273 12 11.2455 11.9378 11.8182 11.8133L9.74545 9.77778C8.44546 9.64444 7.40909 8.63111 7.27273 7.36L4.18182 4.32889C3.28182 5.08444 2.52727 6.02667 1.98182 7.11111Z" fill="#686B6F"/>
</svg>
