<svg width="311" height="311" viewBox="0 0 311 311" fill="none" xmlns="http://www.w3.org/2000/svg">
    <g clip-path="url(#clip0_465_22774)">
        <path d="M111.519 256.465C111.519 256.465 136.456 244.267 155.919 246.351C175.383 248.434 181.983 258.072 183.906 262.887C185.838 267.703 186.158 282.312 180.849 289.054C175.539 295.797 166.163 297.116 158.367 297.498C150.571 297.881 141.57 298.77 140.671 297.943C139.78 297.116 138.435 295.774 138.435 295.774C138.435 295.774 126.103 297.046 121.505 296.093C116.907 295.134 109.814 294.946 109.814 294.946C109.814 294.946 95.2541 303.741 85.6046 303.741C75.9551 303.741 64.1395 302.594 58.0088 299.722C51.8782 296.85 51.6201 293.604 52.8322 292.457C54.0443 291.31 55.5769 291.185 64.7729 292.582C73.9689 293.986 87.278 291.232 87.278 291.232L80.686 287.673C80.686 287.673 59.6666 287.166 55.1312 283.787C50.5958 280.407 50.9789 276.841 53.3405 275.561C55.702 274.289 62.0907 275.944 68.0337 276.388C73.9767 276.833 79.4661 277.153 79.4661 277.153L111.519 256.465Z" fill="white"/>
        <path d="M131.147 82.4824C131.147 82.4824 131.436 98.0046 130.709 104.388C129.982 110.772 130.56 126.294 130.419 127.746C130.279 129.197 123.147 143.127 120.825 144.142C118.502 145.156 113.849 141.527 112.833 129.782C111.816 118.03 112.544 89.8884 112.544 89.8884L131.147 82.4824Z" fill="white" stroke="black" stroke-width="1.61768" stroke-miterlimit="10" stroke-linecap="round" stroke-linejoin="round"/>
        <path d="M70.9583 59.0703C70.9583 59.0703 96.6382 61.9656 98.6713 61.6222C100.704 61.2867 103.762 58.126 114.272 61.7315C124.789 65.3447 138.466 79.4465 138.466 79.4465C138.466 79.4465 131.459 89.5995 125.462 93.7747C119.472 97.9498 111.558 102.351 111.558 102.351L51.9799 117.468L45.4191 100.993C45.4191 100.993 36.5985 99.8618 29.4747 95.5774C22.351 91.293 15.6808 90.7233 15.5713 90.2707C15.4618 89.8181 18.9025 79.8211 25.6744 72.5556C30.4444 67.444 35.1127 65.571 40.0861 63.8776C45.0594 62.1841 47.9527 62.1061 52.1675 61.2008C60.4408 59.4215 70.9583 59.0703 70.9583 59.0703Z" fill="white" stroke="black" stroke-width="1.61768" stroke-miterlimit="10" stroke-linecap="round" stroke-linejoin="round"/>
        <path d="M51.237 102.055C51.237 102.055 67.0406 104.201 83.2508 102.227C99.4611 100.252 115.085 94.7271 115.085 94.7271C115.085 94.7271 114.889 130.438 114.1 137.54C113.31 144.641 112.411 149.293 112.747 155.965C113.083 162.637 112.074 165.142 116.258 169.981C120.441 174.819 121.607 177.988 121.607 180.493C121.607 182.998 121.771 184.996 121.771 184.996C121.771 184.996 136.98 183.997 154.535 185.16C172.091 186.323 182.952 184.66 189.638 192.332C196.324 200.003 193.485 216.524 191.311 220.028C189.138 223.532 183.992 226.193 173.553 229.697C153.98 236.268 123.718 240.225 123.718 240.225L113.576 213.683C113.576 213.683 85.9956 230.868 72.6161 228.862C59.2444 226.856 46.7015 219.349 44.1992 215.853C41.6891 212.349 35.3395 207.51 35.3395 207.51L31.328 210.343C31.328 210.343 33.0014 201.837 32.6651 200.83C32.3289 199.831 30.155 194.657 20.9669 194.657C11.7709 194.657 5.28052 200.065 5.28052 200.065L5.58549 205.403C5.58549 205.403 0.565238 203.007 0.0647766 198.832C-0.435685 194.665 2.07444 186.65 3.74004 178.979C5.40564 171.308 8.58827 152.953 9.08873 147.779C9.58919 142.605 10.5901 131.765 13.4365 127.426C16.275 123.087 26.4719 116.25 37.1771 120.082C47.8745 123.922 50.0484 141.77 50.0484 141.77L51.237 102.055Z" fill="#00A58C" stroke="black" stroke-width="1.61768" stroke-linecap="round" stroke-linejoin="round"/>
        <path d="M113.576 213.699C113.576 213.699 119.714 207.495 133.328 202.243C146.942 196.991 150.399 196.444 150.399 196.444" stroke="black" stroke-width="1.61768" stroke-linecap="round" stroke-linejoin="round"/>
        <path d="M35.3394 207.526C35.3394 207.526 39.0929 204.053 39.2728 201.517C39.4526 198.98 38.7254 196.444 38.7254 196.444C38.7254 196.444 43.2608 176.146 44.3556 171.799C45.4425 167.452 45.6302 164.011 45.6302 164.011" stroke="black" stroke-width="1.61768" stroke-linecap="round" stroke-linejoin="round"/>
        <path d="M121.771 185.004C121.771 185.004 119.941 186.393 113.771 183.022C107.601 179.65 102.48 178.604 102.48 178.604" stroke="black" stroke-width="1.61768" stroke-linecap="round" stroke-linejoin="round"/>
        <path d="M38.6395 196.085C38.6395 196.085 34.3856 188.367 26.0185 186.494C17.6514 184.621 12.4122 185.995 9.90988 186.993" stroke="black" stroke-width="1.61768" stroke-linecap="round" stroke-linejoin="round"/>
        <path d="M150.539 196.124C150.539 196.124 141.171 194.993 134.087 196.413C127.002 197.826 99.3594 198.185 91.3833 199.418C83.4072 200.659 75.9707 200.128 71.185 195.523C66.3993 190.927 67.9946 188.453 63.3888 183.146C58.783 177.84 53.6454 167.055 52.4021 162.278C52.4021 162.278 50.8381 147.264 50.0562 141.793" stroke="black" stroke-width="1.61768" stroke-linecap="round" stroke-linejoin="round"/>
        <path d="M68.6359 245.118C68.6359 245.118 81.9528 243.643 94.8397 242.589C107.734 241.536 122.709 241.286 124.641 239.624C127.424 237.236 126.158 229.557 123.139 223.298C120.121 217.039 115.343 212.216 115.343 212.216C115.343 212.216 88.7091 224.664 80.0448 225.717C71.3806 226.771 66.0944 225.296 66.0944 225.296C66.0944 225.296 61.0195 227.824 61.864 230.782C62.7163 233.732 68.6359 245.118 68.6359 245.118Z" fill="white" stroke="#231F20" stroke-width="1.61768" stroke-miterlimit="10" stroke-linecap="round" stroke-linejoin="round"/>
        <path d="M66.6418 230.657C66.9234 231.492 72.663 232.616 73.0775 237.22C73.4997 241.832 69.5821 248.395 69.5821 248.395C69.5821 248.395 59.5024 248.395 55.5848 249.09C51.6671 249.792 38.3658 254.467 35.7071 255.31C33.0484 256.153 27.8561 261.319 24.3528 259.087C20.8496 256.855 11.9586 249.16 18.9572 239.241C25.9559 229.322 32.3524 229.814 38.0921 226.318C43.8318 222.822 48.0309 217.101 49.9859 216.82C51.9486 216.539 67.0641 222.689 68.4638 224.78C69.8636 226.872 66.6418 230.657 66.6418 230.657Z" fill="#FBD277" stroke="black" stroke-width="1.61768" stroke-linecap="round" stroke-linejoin="round"/>
        <path d="M53.8487 218.889C53.8487 218.889 47.0456 226.115 40.8367 229.658C34.6279 233.201 29.1619 236.003 27.5354 237.626" stroke="#231F20" stroke-width="1.61768" stroke-miterlimit="10" stroke-linecap="round" stroke-linejoin="round"/>
        <path d="M61.1993 235.87C61.1993 235.87 65.203 239.312 62.0908 245.867" stroke="#231F20" stroke-width="1.61768" stroke-miterlimit="10" stroke-linecap="round" stroke-linejoin="round"/>
        <path d="M55.5222 236.76C55.5222 236.76 59.5259 240.201 56.4137 246.757" stroke="#231F20" stroke-width="1.61768" stroke-miterlimit="10" stroke-linecap="round" stroke-linejoin="round"/>
        <path d="M49.845 238.43C49.845 238.43 53.8487 241.871 50.7365 248.427" stroke="#231F20" stroke-width="1.61768" stroke-miterlimit="10" stroke-linecap="round" stroke-linejoin="round"/>
        <path d="M32.3211 201.524L27.035 252.844L9.60485 251.447L5.07724 199.16C5.07724 199.16 8.21295 191.652 22.9687 194.033C33.1422 195.679 32.3211 201.524 32.3211 201.524Z" fill="white" stroke="#231F20" stroke-width="1.61768" stroke-miterlimit="10" stroke-linecap="round" stroke-linejoin="round"/>
        <path d="M29.7093 258.533C29.7093 258.533 28.9273 245.188 19.8095 244.946C10.6917 244.704 8.65079 249.402 8.06431 253.593C7.47783 257.784 3.76346 279.908 1.92583 287.603C0.0803807 295.305 2.21516 305.965 11.8021 307.916C21.3891 309.867 26.1669 304.92 28.6614 291.427C31.1559 277.933 29.7093 258.533 29.7093 258.533Z" fill="#FBD277" stroke="black" stroke-width="1.61768" stroke-linecap="round" stroke-linejoin="round"/>
        <path d="M23.3128 261.881C23.3128 261.881 18.1048 256.847 11.7787 260.608" stroke="#231F20" stroke-width="1.61768" stroke-miterlimit="10" stroke-linecap="round" stroke-linejoin="round"/>
        <path d="M22.9453 267.671C22.9453 267.671 17.7373 262.638 11.4112 266.399" stroke="#231F20" stroke-width="1.61768" stroke-miterlimit="10" stroke-linecap="round" stroke-linejoin="round"/>
        <path d="M22.3274 273.969C22.3274 273.969 17.1195 268.935 10.7933 272.697" stroke="#231F20" stroke-width="1.61768" stroke-miterlimit="10" stroke-linecap="round" stroke-linejoin="round"/>
        <path d="M27.512 295.773C27.512 295.773 25.5883 304.428 13.6945 303.726C1.80075 303.023 1.54269 292.051 1.54269 292.051" stroke="#231F20" stroke-width="1.61768" stroke-miterlimit="10" stroke-linecap="round" stroke-linejoin="round"/>
        <path d="M48.3906 61.8174C48.3906 61.8174 52.058 65.6413 55.053 77.9404C58.0479 90.2395 58.7204 96.8963 58.7204 96.8963L49.3915 98.5586C49.3915 98.5586 47.7259 84.2617 45.2236 76.4499C42.7213 68.6381 39.7263 63.9791 39.7263 63.9791L48.3906 61.8174Z" fill="#00A58C" stroke="black" stroke-width="1.61768" stroke-linecap="round" stroke-linejoin="round"/>
        <path d="M104.927 59.0391C104.927 59.0391 108.266 61.1149 111.261 73.4218C114.256 85.7209 114.928 92.3777 114.928 92.3777L105.6 94.04C105.6 94.04 103.934 79.7431 101.432 71.9313C98.9293 64.1195 95.9344 59.4605 95.9344 59.4605L104.927 59.0391Z" fill="#00A58C" stroke="black" stroke-width="1.61768" stroke-linecap="round" stroke-linejoin="round"/>
        <path d="M60.9491 116.126C60.9491 116.126 73.4763 116.313 84.5099 115.01C92.6893 114.042 108.634 110.905 108.634 110.905C108.634 110.905 108.446 134.606 107.328 139.46C106.21 144.314 103.778 147.669 99.4768 148.231C95.176 148.793 63.9753 150.69 61.5121 148.231C58.1418 144.868 60.9491 116.126 60.9491 116.126Z" stroke="black" stroke-width="1.61768" stroke-linecap="round" stroke-linejoin="round"/>
        <path d="M57.5006 110.733C59.1158 110.733 60.4252 109.426 60.4252 107.814C60.4252 106.202 59.1158 104.896 57.5006 104.896C55.8854 104.896 54.576 106.202 54.576 107.814C54.576 109.426 55.8854 110.733 57.5006 110.733Z" fill="white" stroke="black" stroke-width="1.61768" stroke-miterlimit="10" stroke-linecap="round" stroke-linejoin="round"/>
        <path d="M110.143 104.825C111.758 104.825 113.067 103.518 113.067 101.906C113.067 100.295 111.758 98.9878 110.143 98.9878C108.528 98.9878 107.218 100.295 107.218 101.906C107.218 103.518 108.528 104.825 110.143 104.825Z" fill="white" stroke="black" stroke-width="1.61768" stroke-miterlimit="10" stroke-linecap="round" stroke-linejoin="round"/>
        <path d="M103.934 12.8706C103.934 12.8706 117.884 24.9746 111.324 37.7107C102.354 55.1214 109.861 64.6111 109.861 64.6111C109.861 64.6111 106.139 68.4663 95.0899 67.6625C89.6317 67.2723 81.1239 60.3345 81.1239 60.3345C81.1239 60.3345 81.1395 56.9554 85.3543 56.2686C89.8741 55.5351 92.8378 54.8093 95.7077 50.361C104.419 36.8367 103.934 12.8706 103.934 12.8706Z" fill="black"/>
        <path d="M72.3814 34.3553C72.3814 34.3553 73.0226 20.5968 80.4122 17.3192C87.8097 14.0415 102.323 16.5934 103.418 24.0618C104.513 31.5302 100.869 44.1961 98.6712 48.4805C94.5659 56.4952 87.3327 56.4094 87.3327 56.4094C87.3327 56.4094 87.0746 61.9658 85.5263 63.4252C83.978 64.8845 81.2333 66.976 76.4867 66.1565C71.7402 65.3371 69.0033 63.511 68.6357 60.8733C68.2682 58.2277 70.0668 46.4593 69.535 45.4213C69.0033 44.3834 63.7953 41.7457 64.6242 37.4613C65.4453 33.1769 66.7043 32.0063 69.0424 31.9595C71.3805 31.9126 72.2954 34.0977 72.2954 34.0977L72.3814 34.3553Z" fill="white"/>
        <path d="M73.3668 28.1978C74.5163 23.8432 80.1074 20.8387 84.3535 22.3448C86.0191 22.9379 87.8567 23.8822 89.7882 25.3572C97.514 31.2648 108.61 28.549 108.61 28.549C108.61 28.549 111.722 21.4864 107.195 11.3334C102.089 -0.12286 79.8571 -3.81415 69.4726 4.55173C58.3764 13.4873 60.3704 20.9401 50.2752 28.7597C36.145 39.7087 35.9573 48.9252 35.9573 48.9252C35.9573 48.9252 46.9909 55.8474 52.8713 61.4975C61.7467 70.0194 68.0963 58.5398 68.0963 58.5398L69.6368 45.0233C69.6368 45.0233 65.7582 41.9017 65.2578 38.4601C64.468 33.0285 67.1892 32.053 68.3622 31.9906C69.5586 31.9281 72.2095 34.8468 72.2095 34.8468L73.3668 28.1978Z" fill="black"/>
        <path d="M72.7334 35.9474C72.7334 35.9474 72.1313 32.2639 69.0347 31.944C65.9381 31.624 63.9362 35.963 65.0232 39.0534C65.7973 41.2619 67.8148 43.0803 68.9018 43.9465C69.3475 44.2977 69.5821 44.8518 69.5351 45.4137L68.4482 57.1587C68.0963 60.9514 70.5204 64.4632 74.2035 65.4387C75.1419 65.6884 76.1741 65.8914 77.2923 66.0162C78.0899 66.1021 78.911 66.1255 79.7086 66.1099C83.3682 66.0162 86.4335 63.3082 87.0982 59.7106C87.2937 58.6492 88.4197 57.0104 87.3406 57.1431C79.4662 58.103 77.1515 52.8665 77.2297 52.6402" stroke="black" stroke-width="1.61768" stroke-miterlimit="10" stroke-linecap="round" stroke-linejoin="round"/>
        <path d="M92.0636 37.9058C91.915 39.6461 91.915 43.1266 91.915 43.1266C91.915 43.1266 89.0686 43.8368 87.7236 42.5882" stroke="black" stroke-width="1.61768" stroke-miterlimit="10" stroke-linecap="round" stroke-linejoin="round"/>
        <path d="M83.3525 32.2246C83.3525 32.2246 84.3378 34.4722 87.4422 33.8947" stroke="black" stroke-width="1.61768" stroke-miterlimit="10" stroke-linecap="round" stroke-linejoin="round"/>
        <path d="M95.3323 35.7598C95.3323 35.7598 96.5522 37.8825 99.5862 36.9772" stroke="black" stroke-width="1.61768" stroke-miterlimit="10" stroke-linecap="round" stroke-linejoin="round"/>
        <path d="M83.1179 45.9209L91.1722 48.4416C91.1722 48.4416 89.5066 51.9144 85.8782 50.8218C82.3046 49.7449 83.1179 45.9209 83.1179 45.9209Z" stroke="black" stroke-width="1.61768" stroke-miterlimit="10" stroke-linecap="round" stroke-linejoin="round"/>
        <path d="M84.2049 39.1624C87.7376 39.1624 90.6014 36.3043 90.6014 32.7787C90.6014 29.2531 87.7376 26.395 84.2049 26.395C80.6722 26.395 77.8084 29.2531 77.8084 32.7787C77.8084 36.3043 80.6722 39.1624 84.2049 39.1624Z" stroke="black" stroke-width="1.61768" stroke-miterlimit="10" stroke-linecap="round" stroke-linejoin="round"/>
        <path d="M98.9841 42.8225C102.517 42.8225 105.381 39.9644 105.381 36.4388C105.381 32.9132 102.517 30.0552 98.9841 30.0552C95.4514 30.0552 92.5875 32.9132 92.5875 36.4388C92.5875 39.9644 95.4514 42.8225 98.9841 42.8225Z" stroke="black" stroke-width="1.61768" stroke-miterlimit="10" stroke-linecap="round" stroke-linejoin="round"/>
        <path d="M52.3865 158.002C52.3865 158.002 66.3994 162.372 67.7835 165.306C69.1675 168.241 70.3718 172.463 71.8419 173.672C73.312 174.882 80.9988 177.808 83.4151 178.675C85.8314 179.533 89.2017 178.245 92.2279 177.379C95.2541 176.521 96.1143 174.273 96.8102 172.634C97.4984 170.995 99.7504 166.859 98.6244 165.993C97.4984 165.127 95.7702 165.564 94.738 166.945C93.698 168.326 90.1557 170.738 88.5213 171.081C86.887 171.425 82.9068 167.889 80.7486 165.392C78.5903 162.895 77.2922 162.029 77.2922 162.029L77.7849 156.316C77.7849 156.316 80.123 157.331 81.9919 158.415C83.8608 159.5 86.7384 159.282 87.9114 156.94C88.7481 155.27 86.4335 154.685 84.0172 152.664C81.6009 150.643 78.7936 147.841 76.8465 146.834C74.8994 145.82 71.318 147.997 69.9104 147.997C68.5107 147.997 62.1455 146.155 62.1455 146.155C62.1455 146.155 57.438 140.31 56.7029 138.016C55.9679 135.721 53.7705 125.701 52.3083 120.379C50.846 115.056 45.4113 101.009 45.4113 101.009L21.1389 91.9878C21.1389 91.9878 26.5814 114.846 28.8804 118.919C28.8804 118.919 43.9177 118.966 47.679 133.794C49.3524 140.349 52.3865 158.002 52.3865 158.002Z" fill="white" stroke="black" stroke-width="1.61768" stroke-miterlimit="10" stroke-linecap="round" stroke-linejoin="round"/>
        <path d="M72.1077 168.576C72.1077 168.576 80.5765 177.457 83.4228 178.667" stroke="black" stroke-width="1.61768" stroke-miterlimit="10" stroke-linecap="round" stroke-linejoin="round"/>
        <path d="M77.7848 156.316C77.7536 157.042 79.6772 162.2 83.2743 167.803C86.8713 173.399 94.1437 179.174 94.1437 179.174L91.8681 172.439C91.8681 172.439 95.0273 176.2 96.513 179.439C98.0066 182.678 98.7886 183.724 98.7886 183.724C98.7886 183.724 98.9606 178.651 97.4749 175.326C95.9813 172.002 86.5585 158.759 86.5585 158.759C86.5585 158.759 84.7522 159.96 81.9997 158.415C79.2393 156.862 77.7848 156.316 77.7848 156.316Z" fill="#4D4F51" stroke="#231F20" stroke-width="1.61768" stroke-miterlimit="10" stroke-linecap="round" stroke-linejoin="round"/>
        <path d="M292.882 242.55C292.882 242.55 292.491 169.193 264.731 128.222C236.971 87.2508 209.211 92.3234 209.211 92.3234" stroke="black" stroke-width="1.61768" stroke-miterlimit="10" stroke-linecap="round" stroke-linejoin="round"/>
        <path d="M204.965 264.105C204.965 264.105 212.691 222.619 245.393 211.451C278.095 200.284 288.315 227.894 288.315 227.894" stroke="black" stroke-width="1.61768" stroke-miterlimit="10" stroke-linecap="round" stroke-linejoin="round"/>
        <path d="M220.667 269.505C220.667 269.505 219.071 282.522 212.214 286.869C206.904 290.233 199.397 289.64 195.206 285.394C190.217 280.337 194.08 268.928 194.08 268.928L220.667 269.505Z" fill="#00A9A6" stroke="black" stroke-width="1.61768" stroke-linecap="round" stroke-linejoin="round"/>
        <path d="M184.805 264.885C184.805 264.885 194.94 267.749 200.805 282.155C203.213 288.079 201.868 295.032 198.693 301.455C195.518 307.877 197.028 309.75 200.171 310.827C203.315 311.904 208.554 307.971 210.517 298.216C212.479 288.461 211.26 275.982 204.214 266.29C198.818 258.86 187.23 253.281 175.265 252.282" fill="white"/>
        <path d="M184.805 264.885C184.805 264.885 194.94 267.749 200.805 282.155C203.213 288.079 201.868 295.032 198.693 301.455C195.518 307.877 197.028 309.75 200.171 310.827C203.315 311.904 208.554 307.971 210.517 298.216C212.479 288.461 211.26 275.982 204.214 266.29C198.818 258.86 187.23 253.281 175.265 252.282" stroke="#231F20" stroke-width="1.61768" stroke-miterlimit="10" stroke-linecap="round" stroke-linejoin="round"/>
        <path d="M191.374 267.234L191.28 277.902L195.745 273.758L191.374 267.234Z" fill="white" stroke="#231F20" stroke-width="1.61768" stroke-miterlimit="10" stroke-linecap="round" stroke-linejoin="round"/>
        <path d="M193.97 270.73L194.51 281.383L198.725 276.981L193.97 270.73Z" fill="white" stroke="#231F20" stroke-width="1.61768" stroke-miterlimit="10" stroke-linecap="round" stroke-linejoin="round"/>
        <path d="M197.293 274.492L198.795 285.059L202.587 280.291L197.293 274.492Z" fill="white" stroke="#231F20" stroke-width="1.61768" stroke-miterlimit="10" stroke-linecap="round" stroke-linejoin="round"/>
        <path d="M201.297 275.312L203.839 285.675L207.146 280.564L201.297 275.312Z" fill="white" stroke="#231F20" stroke-width="1.61768" stroke-miterlimit="10" stroke-linecap="round" stroke-linejoin="round"/>
        <path d="M205.504 274.781L208.882 284.903L211.76 279.541L205.504 274.781Z" fill="white" stroke="#231F20" stroke-width="1.61768" stroke-miterlimit="10" stroke-linecap="round" stroke-linejoin="round"/>
        <path d="M208.875 272.955L214.262 282.171L215.967 276.326L208.875 272.955Z" fill="white" stroke="#231F20" stroke-width="1.61768" stroke-miterlimit="10" stroke-linecap="round" stroke-linejoin="round"/>
        <path d="M211.823 270.473L219.251 278.137L219.517 272.057L211.823 270.473Z" fill="white" stroke="#231F20" stroke-width="1.61768" stroke-miterlimit="10" stroke-linecap="round" stroke-linejoin="round"/>
        <path d="M193.454 254.771C193.454 254.771 186.737 271.308 198.216 279.034C209.703 286.752 220.667 269.513 220.667 269.513L193.454 254.771Z" fill="#00A9A6" stroke="black" stroke-width="1.61768" stroke-linecap="round" stroke-linejoin="round"/>
        <path d="M196.629 261.803C196.629 261.803 196.042 267.39 201.469 266.017" stroke="#231F20" stroke-width="1.61768" stroke-miterlimit="10" stroke-linecap="round" stroke-linejoin="round"/>
        <path d="M205.942 267.523C205.942 267.523 206.802 273.08 211.697 270.364" stroke="#231F20" stroke-width="1.61768" stroke-miterlimit="10" stroke-linecap="round" stroke-linejoin="round"/>
        <path d="M217.156 88.4761C217.312 89.3969 222.637 115.08 220.471 117.242C218.305 119.403 212.432 121.206 211.08 121.386C209.727 121.565 201.735 112.942 199.725 108.696C197.716 104.451 217.156 88.4761 217.156 88.4761Z" fill="#00A9A6" stroke="black" stroke-width="1.61768" stroke-linecap="round" stroke-linejoin="round"/>
        <path d="M195.401 108.173L203.104 115.572L203.151 109.484L195.401 108.173Z" fill="white" stroke="#231F20" stroke-width="1.61768" stroke-miterlimit="10" stroke-linecap="round" stroke-linejoin="round"/>
        <path d="M199.725 108.688L208.343 116.087L207.545 109.531L199.725 108.688Z" fill="white" stroke="#231F20" stroke-width="1.61768" stroke-miterlimit="10" stroke-linecap="round" stroke-linejoin="round"/>
        <path d="M204.754 108.86L213.48 115.017L212.612 109L204.754 108.86Z" fill="white" stroke="#231F20" stroke-width="1.61768" stroke-miterlimit="10" stroke-linecap="round" stroke-linejoin="round"/>
        <path d="M208.101 106.519L217.398 111.779L215.936 105.871L208.101 106.519Z" fill="white" stroke="#231F20" stroke-width="1.61768" stroke-miterlimit="10" stroke-linecap="round" stroke-linejoin="round"/>
        <path d="M215.646 119.723L210.947 116.008L211.713 121.253L215.646 119.723Z" fill="white" stroke="#231F20" stroke-width="1.61768" stroke-miterlimit="10" stroke-linecap="round" stroke-linejoin="round"/>
        <path d="M219.939 117.585L215.428 114.12L216.194 119.357L219.939 117.585Z" fill="white" stroke="#231F20" stroke-width="1.61768" stroke-miterlimit="10" stroke-linecap="round" stroke-linejoin="round"/>
        <path d="M210.595 103.101L220.291 107.596L218.352 101.821L210.595 103.101Z" fill="white" stroke="#231F20" stroke-width="1.61768" stroke-miterlimit="10" stroke-linecap="round" stroke-linejoin="round"/>
        <path d="M211.572 99.4017L221.988 101.805L218.899 96.561L211.572 99.4017Z" fill="white" stroke="#231F20" stroke-width="1.61768" stroke-miterlimit="10" stroke-linecap="round" stroke-linejoin="round"/>
        <path d="M211.791 95.5542L222.278 96.2878L217.672 89.7559L211.791 95.5542Z" fill="white" stroke="#231F20" stroke-width="1.61768" stroke-miterlimit="10" stroke-linecap="round" stroke-linejoin="round"/>
        <path d="M187.738 98.114C187.738 98.114 195.182 114.338 208.695 111.303C222.207 108.259 217.156 88.4683 217.156 88.4683L187.738 98.114Z" fill="#00A9A6" stroke="black" stroke-width="1.61768" stroke-linecap="round" stroke-linejoin="round"/>
        <path d="M195.042 100.642C195.042 100.642 198.717 104.903 201.438 100.018" stroke="#231F20" stroke-width="1.61768" stroke-miterlimit="10" stroke-linecap="round" stroke-linejoin="round"/>
        <path d="M205.606 97.8018C205.606 97.8018 210.243 100.986 211.627 95.5698" stroke="#231F20" stroke-width="1.61768" stroke-miterlimit="10" stroke-linecap="round" stroke-linejoin="round"/>
        <path d="M91.7509 289.328C91.7509 289.328 83.1101 294.174 69.7697 293.152C59.3617 292.356 54.6386 289.453 52.6758 292.207C50.7209 294.954 53.4969 298.724 63.8736 301.283C72.2173 303.336 80.3576 305.014 91.876 301.986C101.447 299.473 109.165 294.712 109.165 294.712C109.165 294.712 129.239 297.217 138.278 295.781" stroke="#231F20" stroke-width="1.61768" stroke-miterlimit="10" stroke-linecap="round" stroke-linejoin="round"/>
        <path d="M154.762 270.044C154.379 270.333 149.101 270.496 148.757 278.3C148.412 286.104 151.564 290.412 151.564 290.412C151.564 290.412 139.342 291.638 138.896 295.485C138.458 299.332 148.053 298.013 159.133 297.475C171.363 296.882 175.633 294.915 179.988 290.475C182.131 288.297 188.598 275.592 183.992 264.378C179.386 253.164 169.236 247.077 154.918 246.273C135.275 245.173 116.367 254.264 114.037 255.185C111.707 256.106 89.2876 276.404 81.6556 276.974C74.0236 277.543 61.5277 275.507 57.9306 274.906C51.7296 273.876 50.4549 279.276 51.8938 281.305C53.3326 283.334 61.5277 288.29 80.553 287.533L86.8557 291.005" stroke="#231F20" stroke-width="1.61768" stroke-miterlimit="10" stroke-linecap="round" stroke-linejoin="round"/>
        <path d="M124.617 251.455C124.617 251.455 136.738 256.426 138.239 267.336" stroke="#231F20" stroke-width="1.61768" stroke-miterlimit="10" stroke-linecap="round" stroke-linejoin="round"/>
        <path d="M133.148 248.536C133.148 248.536 144.393 253.047 145.887 263.957" stroke="#231F20" stroke-width="1.61768" stroke-miterlimit="10" stroke-linecap="round" stroke-linejoin="round"/>
        <path d="M141.836 247.42C141.836 247.42 151.791 250.729 153.292 261.639" stroke="#231F20" stroke-width="1.61768" stroke-miterlimit="10" stroke-linecap="round" stroke-linejoin="round"/>
        <path d="M91.3365 250.737C92.3843 250.948 93.221 249.871 92.7831 248.903C90.9611 244.899 87.3562 237.774 84.5333 237.205C80.5922 236.401 80.4045 247.116 80.4045 247.116C80.4045 247.116 80.8893 251.135 85.8314 250.565C88.1147 250.284 89.9758 250.456 91.3365 250.737Z" fill="#514E4F" stroke="#231F20" stroke-width="1.61768" stroke-miterlimit="10"/>
        <path d="M80.9753 248.06C80.9753 248.06 79.4583 238.25 83.7356 237.056C88.013 235.862 92.783 248.903 92.783 248.903" stroke="#231F20" stroke-width="0.808839" stroke-miterlimit="10" stroke-linecap="round" stroke-linejoin="round"/>
        <path d="M74.5945 263.044C74.8838 259.945 77.4017 241.91 96.7946 243.776C112.145 245.251 117.024 256.871 117.102 265.798C117.157 271.722 114.858 275.194 111.355 277.434C103.903 282.195 96.5679 282.733 88.6387 281.258C80.6235 279.76 73.531 274.523 74.5945 263.044Z" fill="white" stroke="#231F20" stroke-width="1.61768" stroke-miterlimit="10" stroke-linecap="round" stroke-linejoin="round"/>
        <path d="M80.076 250.37C80.076 250.37 80.8658 255.2 88.2085 256.434C95.5512 257.667 98.9371 256.949 104.122 261.295C112.223 268.093 116.344 264.292 116.344 264.292C116.344 264.292 116.094 249.792 101.916 245.414C93.3304 242.761 87.4109 245.258 85.9799 245.898C82.1169 247.638 80.076 250.37 80.076 250.37Z" fill="#8C8C8C"/>
        <path d="M86.9261 268.53L89.0922 266.587C89.5379 266.165 89.3189 265.424 88.7246 265.299L86.3631 264.815C85.7141 264.682 85.2136 265.392 85.5655 265.954L86.9261 268.53Z" fill="#231F20"/>
        <path d="M104.286 265.736C104.286 265.736 98.4289 263.886 95.1837 265.931" stroke="#231F20" stroke-width="1.61768" stroke-miterlimit="10" stroke-linecap="round" stroke-linejoin="round"/>
        <path d="M100.126 269.014C100.126 269.014 97.4749 267.679 94.5659 268.686" stroke="#231F20" stroke-width="1.61768" stroke-miterlimit="10" stroke-linecap="round" stroke-linejoin="round"/>
        <path d="M72.6317 259.422C72.6317 259.422 78.5043 260.109 81.6322 263.465" stroke="#231F20" stroke-width="1.61768" stroke-miterlimit="10" stroke-linecap="round" stroke-linejoin="round"/>
        <path d="M76.0098 263.769C76.0098 263.769 78.8952 263.925 81.2489 265.775" stroke="#231F20" stroke-width="1.61768" stroke-miterlimit="10" stroke-linecap="round" stroke-linejoin="round"/>
        <path d="M97.3107 248.161C97.3107 248.161 94.566 249.589 93.6198 252.625" stroke="#231F20" stroke-width="1.61768" stroke-miterlimit="10" stroke-linecap="round" stroke-linejoin="round"/>
        <path d="M93.5025 247.1C93.5025 247.1 91.0237 248.957 90.5779 252.102" stroke="#231F20" stroke-width="1.61768" stroke-miterlimit="10" stroke-linecap="round" stroke-linejoin="round"/>
        <path d="M89.3268 246.328C89.3268 246.328 87.1295 248.505 87.1295 251.689" stroke="#231F20" stroke-width="1.61768" stroke-miterlimit="10" stroke-linecap="round" stroke-linejoin="round"/>
        <path d="M109.525 257.643C110.338 258.33 111.597 257.776 111.676 256.714C111.981 252.329 112.215 244.353 110.01 242.503C106.929 239.928 101.651 249.254 101.651 249.254C101.651 249.254 100.157 253.023 104.771 254.865C106.913 255.716 108.462 256.754 109.525 257.643Z" fill="#231F20" stroke="#231F20" stroke-width="1.61768" stroke-miterlimit="10"/>
        <path d="M101.698 250.362C101.698 250.362 105.044 241.013 109.376 241.996C113.709 242.98 111.675 256.707 111.675 256.707" fill="#231F20" fill-opacity="0.82"/>
        <path d="M101.698 250.362C101.698 250.362 105.044 241.013 109.376 241.996C113.709 242.98 111.675 256.707 111.675 256.707" stroke="#231F20" stroke-opacity="0.98" stroke-width="1.61768" stroke-miterlimit="10" stroke-linecap="round" stroke-linejoin="round"/>
        <path d="M107.922 246.491C107.922 246.491 109.181 249.16 108.626 252.812" stroke="#231F20" stroke-width="1.61768" stroke-miterlimit="10" stroke-linecap="round" stroke-linejoin="round"/>
        <path d="M95.043 260.437C95.043 260.437 93.8544 257.932 91.8134 259.587" stroke="#231F20" stroke-width="1.61768" stroke-miterlimit="10" stroke-linecap="round" stroke-linejoin="round"/>
        <path d="M86.4178 258.252C86.4178 258.252 85.2136 255.926 83.2665 257.44" stroke="#231F20" stroke-width="1.61768" stroke-miterlimit="10" stroke-linecap="round" stroke-linejoin="round"/>
        <path d="M92.6033 264.69C93.264 264.69 93.7997 264.156 93.7997 263.496C93.7997 262.837 93.264 262.302 92.6033 262.302C91.9425 262.302 91.4069 262.837 91.4069 263.496C91.4069 264.156 91.9425 264.69 92.6033 264.69Z" fill="#231F20"/>
        <path d="M84.2987 262.536C84.9595 262.536 85.4951 262.002 85.4951 261.342C85.4951 260.683 84.9595 260.148 84.2987 260.148C83.6379 260.148 83.1023 260.683 83.1023 261.342C83.1023 262.002 83.6379 262.536 84.2987 262.536Z" fill="#231F20"/>
        <path d="M86.6523 274.508C87.9954 274.508 89.0843 273.421 89.0843 272.081C89.0843 270.74 87.9954 269.654 86.6523 269.654C85.3092 269.654 84.2204 270.74 84.2204 272.081C84.2204 273.421 85.3092 274.508 86.6523 274.508Z" stroke="#231F20" stroke-width="1.61768" stroke-miterlimit="10" stroke-linecap="round" stroke-linejoin="round"/>
        <path d="M109.165 294.712C109.165 294.712 115.249 291.591 117.877 285.707" stroke="#231F20" stroke-width="1.61768" stroke-miterlimit="10" stroke-linecap="round" stroke-linejoin="round"/>
        <path d="M296.26 266.415H268.093C261.806 266.415 256.715 261.334 256.715 255.06V231.718C256.715 225.444 261.806 220.363 268.093 220.363H296.26C302.547 220.363 307.637 225.444 307.637 231.718V255.06C307.637 261.326 302.539 266.415 296.26 266.415Z" fill="white" stroke="black" stroke-width="1.61768" stroke-miterlimit="10" stroke-linecap="round" stroke-linejoin="round"/>
        <path d="M197.45 115.938C197.45 115.938 194.189 139.499 198.201 139.241C202.22 138.991 197.45 115.938 197.45 115.938Z" stroke="black" stroke-width="1.61768" stroke-miterlimit="10" stroke-linecap="round" stroke-linejoin="round"/>
        <path d="M211.259 127.714C211.259 127.714 208.499 164.807 212.518 164.557C216.53 164.299 211.259 127.714 211.259 127.714Z" stroke="black" stroke-width="1.61768" stroke-miterlimit="10" stroke-linecap="round" stroke-linejoin="round"/>
        <path d="M228.353 137.306C228.353 137.306 242.343 157.104 261.439 169.427C277.18 179.588 287.877 208.767 287.408 223.15C286.946 237.532 289.73 203.663 274.388 199.02C259.046 194.376 245.557 188.344 237.19 174.421C228.823 160.515 228.353 137.306 228.353 137.306Z" stroke="black" stroke-width="1.61768" stroke-miterlimit="10" stroke-linecap="round" stroke-linejoin="round"/>
        <path d="M238.417 161.03C238.417 161.03 242.632 171.12 260.039 182.327C277.445 193.533 281.379 199.137 285.304 210.351" stroke="black" stroke-width="1.61768" stroke-miterlimit="10" stroke-linecap="round" stroke-linejoin="round"/>
        <path d="M306.159 233.404H258.569C255.894 233.404 253.728 231.242 253.728 228.573V222.861C253.728 220.192 255.894 218.03 258.569 218.03H306.159C308.834 218.03 311 220.192 311 222.861V228.573C311 231.242 308.834 233.404 306.159 233.404Z" fill="white" stroke="black" stroke-width="1.61768" stroke-miterlimit="10" stroke-linecap="round" stroke-linejoin="round"/>
        <path d="M260.625 90.6221C260.625 90.6221 263.644 100.065 265.458 110.905C267.272 121.737 270.736 130.11 273.395 139.53C276.046 148.949 278.658 156.48 278.658 156.48C278.658 156.48 282.622 134.652 280.049 118.966C277.477 103.265 260.625 90.6221 260.625 90.6221Z" stroke="black" stroke-width="1.61768" stroke-miterlimit="10" stroke-linecap="round" stroke-linejoin="round"/>
        <path d="M271.76 112.395C271.76 112.395 275.936 149.487 278.126 156.105" stroke="black" stroke-width="1.61768" stroke-miterlimit="10" stroke-linecap="round" stroke-linejoin="round"/>
        <path d="M128.887 118.872C128.887 118.872 128.277 115.844 127.143 116.149C126.009 116.453 125.782 118.264 123.96 119.778C122.138 121.292 119.183 123.406 117.9 125.904C116.61 128.401 115.32 130.516 115.625 133.692C115.93 136.868 114.866 140.123 114.186 142.237C113.505 144.352 110.855 147.302 112.364 150.557C113.881 153.811 116.68 157.44 119.409 158.048C122.138 158.657 126.838 155.551 128.425 153.28C130.021 151.009 132.288 148.668 132.515 146.249C132.742 143.829 133.125 141.184 133.125 141.184C133.125 141.184 135.244 140.505 136.308 138.765C137.371 137.024 137.973 134.379 138.051 133.77C138.13 133.161 139.647 132.482 139.873 130.672C140.1 128.861 137.825 127.644 137.825 127.644C137.825 127.644 139.342 125.826 138.959 124.39C138.583 122.954 135.471 122.119 135.471 122.119C135.471 122.119 138.669 121.276 139.201 119.231C139.733 117.187 139.639 115.08 138.051 115.08C136.456 115.08 135.244 115.002 133.805 115.837C132.367 116.679 128.887 118.872 128.887 118.872Z" fill="white"/>
        <path d="M132.624 140.864C132.624 140.864 132.382 147.942 129.747 151.399C127.112 154.857 122.975 158.532 119.816 158.236C116.657 157.939 112.364 153.577 111.918 149.527C111.464 145.468 115.155 140.365 115.757 139.163C116.359 137.961 115.382 133.38 115.906 129.478C116.43 125.576 118.768 124 120.95 122.415C123.131 120.839 124.484 118.958 124.938 117.835C125.391 116.711 125.915 115.954 127.041 116.258C128.167 116.555 128.472 118.74 128.472 118.74" stroke="black" stroke-width="1.61768" stroke-miterlimit="10" stroke-linecap="round" stroke-linejoin="round"/>
        <path d="M135.08 115.259C135.08 115.259 129.794 117.71 128.527 120.16C127.667 121.823 128.003 123.352 130.091 122.985C132.179 122.611 137.535 121.276 138.802 119.567C140.069 117.858 139.545 116.001 138.575 115.556C137.613 115.103 135.08 115.259 135.08 115.259Z" fill="white" stroke="black" stroke-width="1.61768" stroke-miterlimit="10" stroke-linecap="round" stroke-linejoin="round"/>
        <path d="M134.407 122.54C134.407 122.54 126.072 125.81 124.805 128.261C123.945 129.923 124.953 132.124 127.041 131.749C129.129 131.374 136.871 128.557 138.137 126.848C139.404 125.139 138.88 123.282 137.911 122.837C136.941 122.392 134.407 122.54 134.407 122.54Z" fill="white" stroke="black" stroke-width="1.61768" stroke-miterlimit="10" stroke-linecap="round" stroke-linejoin="round"/>
        <path d="M124.805 131.156C124.805 131.156 122.717 131.827 122.568 133.31C122.42 134.793 123.311 135.76 125.469 135.69C127.628 135.612 135.745 134.426 137.676 133.606C139.607 132.787 140.21 129.072 139.24 128.557C138.27 128.034 136.706 127.816 136.706 127.816C136.706 127.816 131.569 130.493 129.113 131.156C126.658 131.827 125.618 131.897 125.462 131.531C125.329 131.156 124.805 131.156 124.805 131.156Z" fill="white" stroke="black" stroke-width="1.61768" stroke-miterlimit="10" stroke-linecap="round" stroke-linejoin="round"/>
        <path d="M123.389 135.394C123.389 135.394 121.974 135.916 122.123 137.329C122.271 138.741 124.062 139.186 127.112 139.561" stroke="black" stroke-width="1.61768" stroke-miterlimit="10" stroke-linecap="round" stroke-linejoin="round"/>
        <path d="M137.684 133.606C137.684 133.606 137.911 135.838 137.011 137.399C136.12 138.96 135.447 139.701 133.36 140.372C131.272 141.044 129.935 142.004 129.34 142.604" stroke="black" stroke-width="1.61768" stroke-miterlimit="10" stroke-linecap="round" stroke-linejoin="round"/>
        <path d="M83.2743 191.325C83.2743 191.325 100.11 151.61 139.216 106.675C155.919 87.4847 161.401 75.7241 161.401 75.7241" stroke="black" stroke-width="1.61768" stroke-miterlimit="10" stroke-linecap="round" stroke-linejoin="round"/>
        <path d="M163.708 59.1405C163.708 59.1405 153.886 56.1906 150.321 55.1293C146.755 54.0679 140.742 56.5184 142.016 60.7403C143.291 64.9467 163.708 59.1405 163.708 59.1405Z" fill="white" stroke="black" stroke-width="1.61768" stroke-miterlimit="10" stroke-linecap="round" stroke-linejoin="round"/>
        <path d="M172.153 61.0215C172.153 61.0215 182.334 62.2779 186.025 62.7384C189.716 63.2066 194.228 67.8734 191.358 71.2135C188.481 74.5614 172.153 61.0215 172.153 61.0215Z" fill="white" stroke="black" stroke-width="1.61768" stroke-miterlimit="10" stroke-linecap="round" stroke-linejoin="round"/>
        <path d="M155.255 62.8477C155.255 62.8477 139.295 67.6471 142.282 74.1947C145.269 80.7422 152.643 73.5001 155.411 70.3473C158.179 67.1945 158.351 65.5166 158.351 65.5166L155.255 62.8477Z" fill="white" stroke="black" stroke-width="1.61768" stroke-miterlimit="10" stroke-linecap="round" stroke-linejoin="round"/>
        <path d="M159.29 66.0547C159.29 66.0547 147.341 77.6514 153.011 82.0919C158.68 86.5324 161.886 76.7149 162.887 72.6412C163.88 68.5754 163.262 66.999 163.262 66.999L159.29 66.0547Z" fill="white" stroke="black" stroke-width="1.61768" stroke-miterlimit="10" stroke-linecap="round" stroke-linejoin="round"/>
        <path d="M164.419 68.0371C164.419 68.0371 158.844 83.7153 165.897 85.1903C172.951 86.6652 171.473 76.442 170.566 72.3527C169.659 68.2634 168.4 67.1318 168.4 67.1318L164.419 68.0371Z" fill="white" stroke="black" stroke-width="1.61768" stroke-miterlimit="10" stroke-linecap="round" stroke-linejoin="round"/>
        <path d="M170.574 68.6536C170.574 68.6536 171.629 85.2527 178.698 83.8402C185.767 82.4277 180.372 73.6092 177.924 70.2066C175.477 66.8041 173.874 66.25 173.874 66.25L170.574 68.6536Z" fill="white" stroke="black" stroke-width="1.61768" stroke-miterlimit="10" stroke-linecap="round" stroke-linejoin="round"/>
        <path d="M174.843 68.1619C174.843 68.1619 182.655 82.8568 188.512 78.6582C194.369 74.4597 185.814 68.6457 182.178 66.5542C178.542 64.4628 176.861 64.6188 176.861 64.6188L174.843 68.1619Z" fill="white" stroke="black" stroke-width="1.61768" stroke-miterlimit="10" stroke-linecap="round" stroke-linejoin="round"/>
        <path d="M155.622 65.1809C155.622 65.1809 141.304 73.695 138.481 67.0772C135.658 60.4595 145.988 59.9132 150.188 60.0068C154.387 60.1005 155.747 61.1072 155.747 61.1072L155.622 65.1809Z" fill="white" stroke="black" stroke-width="1.61768" stroke-miterlimit="10" stroke-linecap="round" stroke-linejoin="round"/>
        <path d="M181.266 67.1385C181.844 63.3637 175.36 59.243 166.783 57.9347C158.207 56.6263 150.785 58.6257 150.207 62.4005C149.629 66.1753 156.113 70.296 164.69 71.6043C173.266 72.9127 180.687 70.9132 181.266 67.1385Z" fill="#FBD277" stroke="black" stroke-width="1.61768" stroke-linecap="round" stroke-linejoin="round"/>
        <path d="M159.955 60.2642L162.363 63.7291" stroke="black" stroke-width="1.61768" stroke-miterlimit="10" stroke-linecap="round" stroke-linejoin="round"/>
        <path d="M159.423 63.1986L162.887 60.7949" stroke="black" stroke-width="1.61768" stroke-miterlimit="10" stroke-linecap="round" stroke-linejoin="round"/>
        <path d="M169.135 61.6689L171.543 65.1261" stroke="black" stroke-width="1.61768" stroke-miterlimit="10" stroke-linecap="round" stroke-linejoin="round"/>
        <path d="M168.603 64.5955L172.067 62.1997" stroke="black" stroke-width="1.61768" stroke-miterlimit="10" stroke-linecap="round" stroke-linejoin="round"/>
        <path d="M159.298 66.8198L171.754 68.724" stroke="black" stroke-width="1.61768" stroke-miterlimit="10" stroke-linecap="round" stroke-linejoin="round"/>
    </g>
    <defs>
        <clipPath id="clip0_465_22774">
            <rect width="311" height="311" fill="white"/>
        </clipPath>
    </defs>
</svg>
