<svg width="18" height="18" viewBox="0 0 18 18" fill="none" xmlns="http://www.w3.org/2000/svg">
    <path d="M16.3934 2.41127H13.0184V1.12556C13.0184 1.03717 12.9461 0.964844 12.8577 0.964844H11.7327C11.6443 0.964844 11.572 1.03717 11.572 1.12556V2.41127H6.42913V1.12556C6.42913 1.03717 6.35681 0.964844 6.26841 0.964844H5.14341C5.05502 0.964844 4.9827 1.03717 4.9827 1.12556V2.41127H1.6077C1.25212 2.41127 0.964844 2.69855 0.964844 3.05413V16.3934C0.964844 16.749 1.25212 17.0363 1.6077 17.0363H16.3934C16.749 17.0363 17.0363 16.749 17.0363 16.3934V3.05413C17.0363 2.69855 16.749 2.41127 16.3934 2.41127ZM15.5898 15.5898H2.41127V7.95591H15.5898V15.5898ZM2.41127 6.58984V3.8577H4.9827V4.82199C4.9827 4.91038 5.05502 4.9827 5.14341 4.9827H6.26841C6.35681 4.9827 6.42913 4.91038 6.42913 4.82199V3.8577H11.572V4.82199C11.572 4.91038 11.6443 4.9827 11.7327 4.9827H12.8577C12.9461 4.9827 13.0184 4.91038 13.0184 4.82199V3.8577H15.5898V6.58984H2.41127Z" fill="#8C8C8C"/>
</svg>
