<svg width="16" height="18" viewBox="0 0 16 18" fill="none" xmlns="http://www.w3.org/2000/svg">
    <path d="M4.94587 2.40737H4.78516C4.87355 2.40737 4.94587 2.33504 4.94587 2.24665V2.40737L11.053 2.40737V2.24665C11.053 2.33504 11.1253 2.40737 11.2137 2.40737H11.053V3.85379H12.4994V2.24665C12.4994 1.5375 11.9229 0.960938 11.2137 0.960938L4.78516 0.960938C4.07601 0.960938 3.49944 1.5375 3.49944 2.24665L3.49944 3.85379L4.94587 3.85379L4.94587 2.40737ZM15.0709 3.85379L0.928014 3.85379C0.572433 3.85379 0.285156 4.14107 0.285156 4.49665L0.285156 5.13951C0.285156 5.2279 0.357478 5.30022 0.445871 5.30022H1.65926L2.15547 15.8069C2.18761 16.492 2.75413 17.0324 3.43918 17.0324L12.5597 17.0324C13.2468 17.0324 13.8113 16.494 13.8434 15.8069L14.3396 5.30022H15.553C15.6414 5.30022 15.7137 5.2279 15.7137 5.13951V4.49665C15.7137 4.14107 15.4265 3.85379 15.0709 3.85379ZM12.405 15.5859L3.59386 15.5859L3.1077 5.30022L12.8912 5.30022L12.405 15.5859Z" fill="black" fill-opacity="0.85"/>
</svg>
