<svg width="16" height="11" viewBox="0 0 16 11" fill="none" xmlns="http://www.w3.org/2000/svg">
    <path d="M2.09944 0.740692L0.546537 0.740692C0.411939 0.740692 0.337608 0.89538 0.419974 0.999845L7.49341 10.0561C7.55325 10.133 7.62987 10.1953 7.71744 10.2381C7.805 10.281 7.90118 10.3032 7.99866 10.3032C8.09613 10.3032 8.19232 10.281 8.27988 10.2381C8.36744 10.1953 8.44407 10.133 8.5039 10.0561L15.5773 0.999844C15.6597 0.893371 15.5854 0.740691 15.4508 0.740691L13.8979 0.740692C13.7994 0.740692 13.705 0.786897 13.6448 0.863236L7.99966 8.09538L2.35256 0.863236C2.2923 0.786898 2.19788 0.740692 2.09944 0.740692Z" fill="black" fill-opacity="0.85"/>
</svg>
