<svg width="4" height="14" viewBox="0 0 4 14" fill="none" xmlns="http://www.w3.org/2000/svg">
    <path d="M2.01953 0.25C1.87179 0.25 1.7255 0.279099 1.58901 0.335635C1.45252 0.392172 1.3285 0.475039 1.22404 0.579505C1.11957 0.683971 1.0367 0.80799 0.980167 0.944481C0.92363 1.08097 0.894531 1.22726 0.894531 1.375C0.894531 1.52274 0.92363 1.66903 0.980167 1.80552C1.0367 1.94201 1.11957 2.06603 1.22404 2.1705C1.3285 2.27496 1.45252 2.35783 1.58901 2.41436C1.7255 2.4709 1.87179 2.5 2.01953 2.5C2.16727 2.5 2.31356 2.4709 2.45005 2.41436C2.58654 2.35783 2.71056 2.27496 2.81503 2.1705C2.91949 2.06603 3.00236 1.94201 3.0589 1.80552C3.11543 1.66903 3.14453 1.52274 3.14453 1.375C3.14453 1.22726 3.11543 1.08097 3.0589 0.944481C3.00236 0.80799 2.91949 0.683971 2.81503 0.579505C2.71056 0.475039 2.58654 0.392172 2.45005 0.335635C2.31356 0.279099 2.16727 0.25 2.01953 0.25ZM2.01953 5.875C1.72116 5.875 1.43501 5.99353 1.22404 6.2045C1.01306 6.41548 0.894531 6.70163 0.894531 7C0.894531 7.29837 1.01306 7.58452 1.22404 7.7955C1.43501 8.00647 1.72116 8.125 2.01953 8.125C2.3179 8.125 2.60405 8.00647 2.81503 7.7955C3.026 7.58452 3.14453 7.29837 3.14453 7C3.14453 6.70163 3.026 6.41548 2.81503 6.2045C2.60405 5.99353 2.3179 5.875 2.01953 5.875ZM2.01953 11.5C1.72116 11.5 1.43501 11.6185 1.22404 11.8295C1.01306 12.0405 0.894531 12.3266 0.894531 12.625C0.894531 12.9234 1.01306 13.2095 1.22404 13.4205C1.43501 13.6315 1.72116 13.75 2.01953 13.75C2.3179 13.75 2.60405 13.6315 2.81503 13.4205C3.026 13.2095 3.14453 12.9234 3.14453 12.625C3.14453 12.3266 3.026 12.0405 2.81503 11.8295C2.60405 11.6185 2.3179 11.5 2.01953 11.5Z" fill="black" fill-opacity="0.85"/>
</svg>
