<?xml version="1.0" standalone="no"?>
<!DOCTYPE svg PUBLIC "-//W3C//DTD SVG 20010904//EN"
        "http://www.w3.org/TR/2001/REC-SVG-20010904/DTD/svg10.dtd">
<svg version="1.0" xmlns="http://www.w3.org/2000/svg"
     width="128.000000pt" height="128.000000pt" viewBox="0 0 128.000000 128.000000"
     preserveAspectRatio="xMidYMid meet">

    <g transform="translate(0.000000,128.000000) scale(0.100000,-0.100000)"
       fill="#ffffff" stroke="none">
        <path d="M0 640 l0 -640 165 0 164 0 -24 25 -25 24 0 591 0 591 25 24 24 25
-164 0 -165 0 0 -640z"/>
        <path d="M415 1255 l25 -24 0 -591 0 -591 -25 -24 -24 -25 249 0 249 0 -24 25
-25 24 0 591 0 591 25 24 24 25 -249 0 -249 0 24 -25z"/>
        <path d="M975 1255 l25 -24 0 -591 0 -591 -25 -24 -24 -25 164 0 165 0 0 640
0 640 -165 0 -164 0 24 -25z"/>
    </g>
</svg>
